<svg width="28" height="28" viewBox="0 0 28 28" fill="none" xmlns="http://www.w3.org/2000/svg">
<path d="M9.33317 21H18.6665V18.6667H9.33317V21ZM9.33317 16.3333H18.6665V14H9.33317V16.3333ZM6.99984 25.6667C6.35817 25.6667 5.80906 25.4384 5.3525 24.9818C4.89595 24.5253 4.66728 23.9758 4.6665 23.3333V4.66668C4.6665 4.02501 4.89517 3.4759 5.3525 3.01934C5.80984 2.56279 6.35895 2.33412 6.99984 2.33334H16.3332L23.3332 9.33334V23.3333C23.3332 23.975 23.1049 24.5245 22.6483 24.9818C22.1918 25.4392 21.6423 25.6675 20.9998 25.6667H6.99984ZM15.1665 10.5V4.66668H6.99984V23.3333H20.9998V10.5H15.1665Z" fill="black"/>
</svg>
