<svg width="1440" height="261" viewBox="0 0 1440 261" fill="none" xmlns="http://www.w3.org/2000/svg">
<path d="M0 134.985C120 166.489 240 197.992 360 189.565C480 181.453 600 126.321 720 118.209C840 109.782 960 147.586 1080 164.362C1200 181.453 1320 176.727 1440 160.188V261H0V134.985Z" fill="#211A51"/>
<g filter="url(#filter0_d_134_92)">
<path d="M11.379 205.295H8.035L7.419 207H6.363L9.135 199.377H10.29L13.051 207H11.995L11.379 205.295ZM11.093 204.481L9.707 200.609L8.321 204.481H11.093ZM13.9951 203.964C13.9951 203.348 14.1198 202.809 14.3691 202.347C14.6184 201.878 14.9594 201.515 15.3921 201.258C15.8321 201.001 16.3198 200.873 16.8551 200.873C17.3831 200.873 17.8414 200.987 18.2301 201.214C18.6188 201.441 18.9084 201.727 19.0991 202.072V200.972H20.1111V207H19.0991V205.878C18.9011 206.23 18.6041 206.523 18.2081 206.758C17.8194 206.985 17.3648 207.099 16.8441 207.099C16.3088 207.099 15.8248 206.967 15.3921 206.703C14.9594 206.439 14.6184 206.069 14.3691 205.592C14.1198 205.115 13.9951 204.573 13.9951 203.964ZM19.0991 203.975C19.0991 203.52 19.0074 203.124 18.8241 202.787C18.6408 202.45 18.3914 202.193 18.0761 202.017C17.7681 201.834 17.4271 201.742 17.0531 201.742C16.6791 201.742 16.3381 201.83 16.0301 202.006C15.7221 202.182 15.4764 202.439 15.2931 202.776C15.1098 203.113 15.0181 203.509 15.0181 203.964C15.0181 204.426 15.1098 204.829 15.2931 205.174C15.4764 205.511 15.7221 205.772 16.0301 205.955C16.3381 206.131 16.6791 206.219 17.0531 206.219C17.4271 206.219 17.7681 206.131 18.0761 205.955C18.3914 205.772 18.6408 205.511 18.8241 205.174C19.0074 204.829 19.0991 204.43 19.0991 203.975ZM22.9137 198.86V207H21.9127V198.86H22.9137ZM25.7307 202.094C25.9361 201.735 26.2367 201.441 26.6327 201.214C27.0287 200.987 27.4797 200.873 27.9857 200.873C28.5284 200.873 29.0161 201.001 29.4487 201.258C29.8814 201.515 30.2224 201.878 30.4717 202.347C30.7211 202.809 30.8457 203.348 30.8457 203.964C30.8457 204.573 30.7211 205.115 30.4717 205.592C30.2224 206.069 29.8777 206.439 29.4377 206.703C29.0051 206.967 28.5211 207.099 27.9857 207.099C27.4651 207.099 27.0067 206.985 26.6107 206.758C26.2221 206.531 25.9287 206.241 25.7307 205.889V207H24.7297V198.86H25.7307V202.094ZM29.8227 203.964C29.8227 203.509 29.7311 203.113 29.5477 202.776C29.3644 202.439 29.1151 202.182 28.7997 202.006C28.4917 201.83 28.1507 201.742 27.7767 201.742C27.4101 201.742 27.0691 201.834 26.7537 202.017C26.4457 202.193 26.1964 202.453 26.0057 202.798C25.8224 203.135 25.7307 203.528 25.7307 203.975C25.7307 204.43 25.8224 204.829 26.0057 205.174C26.1964 205.511 26.4457 205.772 26.7537 205.955C27.0691 206.131 27.4101 206.219 27.7767 206.219C28.1507 206.219 28.4917 206.131 28.7997 205.955C29.1151 205.772 29.3644 205.511 29.5477 205.174C29.7311 204.829 29.8227 204.426 29.8227 203.964ZM34.9023 207.099C34.3377 207.099 33.8243 206.971 33.3623 206.714C32.9077 206.457 32.5483 206.094 32.2843 205.625C32.0277 205.148 31.8993 204.598 31.8993 203.975C31.8993 203.359 32.0313 202.816 32.2953 202.347C32.5667 201.87 32.9333 201.507 33.3953 201.258C33.8573 201.001 34.3743 200.873 34.9463 200.873C35.5183 200.873 36.0353 201.001 36.4973 201.258C36.9593 201.507 37.3223 201.867 37.5863 202.336C37.8577 202.805 37.9933 203.352 37.9933 203.975C37.9933 204.598 37.854 205.148 37.5753 205.625C37.304 206.094 36.9337 206.457 36.4643 206.714C35.995 206.971 35.4743 207.099 34.9023 207.099ZM34.9023 206.219C35.2617 206.219 35.599 206.135 35.9143 205.966C36.2297 205.797 36.4827 205.544 36.6733 205.207C36.8713 204.87 36.9703 204.459 36.9703 203.975C36.9703 203.491 36.875 203.08 36.6843 202.743C36.4937 202.406 36.2443 202.156 35.9363 201.995C35.6283 201.826 35.2947 201.742 34.9353 201.742C34.5687 201.742 34.2313 201.826 33.9233 201.995C33.6227 202.156 33.3807 202.406 33.1973 202.743C33.014 203.08 32.9223 203.491 32.9223 203.975C32.9223 204.466 33.0103 204.881 33.1863 205.218C33.3697 205.555 33.6117 205.808 33.9123 205.977C34.213 206.138 34.543 206.219 34.9023 206.219ZM40.4205 201.951C40.5965 201.606 40.8458 201.339 41.1685 201.148C41.4985 200.957 41.8981 200.862 42.3675 200.862V201.896H42.1035C40.9815 201.896 40.4205 202.505 40.4205 203.722V207H39.4195V200.972H40.4205V201.951ZM46.119 200.873C46.6396 200.873 47.0943 200.987 47.483 201.214C47.879 201.441 48.1723 201.727 48.363 202.072V200.972H49.375V207.132C49.375 207.682 49.2576 208.17 49.023 208.595C48.7883 209.028 48.451 209.365 48.011 209.607C47.5783 209.849 47.0723 209.97 46.493 209.97C45.701 209.97 45.041 209.783 44.513 209.409C43.985 209.035 43.6733 208.525 43.578 207.88H44.568C44.678 208.247 44.9053 208.54 45.25 208.76C45.5946 208.987 46.009 209.101 46.493 209.101C47.043 209.101 47.4903 208.929 47.835 208.584C48.187 208.239 48.363 207.755 48.363 207.132V205.867C48.165 206.219 47.8716 206.512 47.483 206.747C47.0943 206.982 46.6396 207.099 46.119 207.099C45.5836 207.099 45.096 206.967 44.656 206.703C44.2233 206.439 43.8823 206.069 43.633 205.592C43.3836 205.115 43.259 204.573 43.259 203.964C43.259 203.348 43.3836 202.809 43.633 202.347C43.8823 201.878 44.2233 201.515 44.656 201.258C45.096 201.001 45.5836 200.873 46.119 200.873ZM48.363 203.975C48.363 203.52 48.2713 203.124 48.088 202.787C47.9046 202.45 47.6553 202.193 47.34 202.017C47.032 201.834 46.691 201.742 46.317 201.742C45.943 201.742 45.602 201.83 45.294 202.006C44.986 202.182 44.7403 202.439 44.557 202.776C44.3736 203.113 44.282 203.509 44.282 203.964C44.282 204.426 44.3736 204.829 44.557 205.174C44.7403 205.511 44.986 205.772 45.294 205.955C45.602 206.131 45.943 206.219 46.317 206.219C46.691 206.219 47.032 206.131 47.34 205.955C47.6553 205.772 47.9046 205.511 48.088 205.174C48.2713 204.829 48.363 204.43 48.363 203.975ZM55.1982 199.333V204.184C55.1982 204.866 55.3632 205.372 55.6932 205.702C56.0305 206.032 56.4962 206.197 57.0902 206.197C57.6769 206.197 58.1352 206.032 58.4652 205.702C58.8025 205.372 58.9712 204.866 58.9712 204.184V199.333H59.9722V204.173C59.9722 204.811 59.8439 205.35 59.5872 205.79C59.3305 206.223 58.9822 206.545 58.5422 206.758C58.1095 206.971 57.6219 207.077 57.0792 207.077C56.5365 207.077 56.0452 206.971 55.6052 206.758C55.1725 206.545 54.8279 206.223 54.5712 205.79C54.3219 205.35 54.1972 204.811 54.1972 204.173V199.333H55.1982ZM64.689 200.862C65.4224 200.862 66.0164 201.086 66.471 201.533C66.9257 201.973 67.153 202.611 67.153 203.447V207H66.163V203.59C66.163 202.989 66.0127 202.53 65.712 202.215C65.4114 201.892 65.0007 201.731 64.48 201.731C63.952 201.731 63.5304 201.896 63.215 202.226C62.907 202.556 62.753 203.036 62.753 203.667V207H61.752V200.972H62.753V201.83C62.951 201.522 63.2187 201.284 63.556 201.115C63.9007 200.946 64.2784 200.862 64.689 200.862ZM69.4152 199.993C69.2245 199.993 69.0632 199.927 68.9312 199.795C68.7992 199.663 68.7332 199.502 68.7332 199.311C68.7332 199.12 68.7992 198.959 68.9312 198.827C69.0632 198.695 69.2245 198.629 69.4152 198.629C69.5985 198.629 69.7525 198.695 69.8772 198.827C70.0092 198.959 70.0752 199.12 70.0752 199.311C70.0752 199.502 70.0092 199.663 69.8772 199.795C69.7525 199.927 69.5985 199.993 69.4152 199.993ZM69.8992 200.972V207H68.8982V200.972H69.8992ZM73.9592 206.076L75.8292 200.972H76.8962L74.5312 207H73.3652L71.0002 200.972H72.0782L73.9592 206.076ZM83.4912 203.755C83.4912 203.946 83.4802 204.147 83.4582 204.36H78.6402C78.6769 204.954 78.8786 205.42 79.2452 205.757C79.6192 206.087 80.0702 206.252 80.5982 206.252C81.0309 206.252 81.3902 206.153 81.6762 205.955C81.9696 205.75 82.1749 205.478 82.2922 205.141H83.3702C83.2089 205.72 82.8862 206.193 82.4022 206.56C81.9182 206.919 81.3169 207.099 80.5982 207.099C80.0262 207.099 79.5129 206.971 79.0582 206.714C78.6109 206.457 78.2589 206.094 78.0022 205.625C77.7456 205.148 77.6172 204.598 77.6172 203.975C77.6172 203.352 77.7419 202.805 77.9912 202.336C78.2406 201.867 78.5889 201.507 79.0362 201.258C79.4909 201.001 80.0116 200.873 80.5982 200.873C81.1702 200.873 81.6762 200.998 82.1162 201.247C82.5562 201.496 82.8936 201.841 83.1282 202.281C83.3702 202.714 83.4912 203.205 83.4912 203.755ZM82.4572 203.546C82.4572 203.165 82.3729 202.838 82.2042 202.567C82.0356 202.288 81.8046 202.079 81.5112 201.94C81.2252 201.793 80.9062 201.72 80.5542 201.72C80.0482 201.72 79.6156 201.881 79.2562 202.204C78.9042 202.527 78.7026 202.974 78.6512 203.546H82.4572ZM85.9235 201.951C86.0995 201.606 86.3488 201.339 86.6715 201.148C87.0015 200.957 87.4012 200.862 87.8705 200.862V201.896H87.6065C86.4845 201.896 85.9235 202.505 85.9235 203.722V207H84.9225V200.972H85.9235V201.951ZM91.27 207.099C90.808 207.099 90.3937 207.022 90.027 206.868C89.6604 206.707 89.3707 206.487 89.158 206.208C88.9454 205.922 88.828 205.596 88.806 205.229H89.84C89.8694 205.53 90.0087 205.775 90.258 205.966C90.5147 206.157 90.8484 206.252 91.259 206.252C91.6404 206.252 91.941 206.168 92.161 205.999C92.381 205.83 92.491 205.618 92.491 205.361C92.491 205.097 92.3737 204.903 92.139 204.778C91.9044 204.646 91.5414 204.518 91.05 204.393C90.6027 204.276 90.236 204.158 89.95 204.041C89.6714 203.916 89.4294 203.737 89.224 203.502C89.026 203.26 88.927 202.945 88.927 202.556C88.927 202.248 89.0187 201.966 89.202 201.709C89.3854 201.452 89.6457 201.251 89.983 201.104C90.3204 200.95 90.7054 200.873 91.138 200.873C91.8054 200.873 92.3444 201.042 92.755 201.379C93.1657 201.716 93.3857 202.178 93.415 202.765H92.414C92.392 202.45 92.2637 202.197 92.029 202.006C91.8017 201.815 91.4937 201.72 91.105 201.72C90.7457 201.72 90.4597 201.797 90.247 201.951C90.0344 202.105 89.928 202.307 89.928 202.556C89.928 202.754 89.9904 202.919 90.115 203.051C90.247 203.176 90.4084 203.278 90.599 203.359C90.797 203.432 91.0684 203.517 91.413 203.612C91.8457 203.729 92.1977 203.847 92.469 203.964C92.7404 204.074 92.9714 204.243 93.162 204.47C93.36 204.697 93.4627 204.994 93.47 205.361C93.47 205.691 93.3784 205.988 93.195 206.252C93.0117 206.516 92.7514 206.725 92.414 206.879C92.084 207.026 91.7027 207.099 91.27 207.099ZM95.5101 199.993C95.3194 199.993 95.1581 199.927 95.0261 199.795C94.8941 199.663 94.8281 199.502 94.8281 199.311C94.8281 199.12 94.8941 198.959 95.0261 198.827C95.1581 198.695 95.3194 198.629 95.5101 198.629C95.6934 198.629 95.8474 198.695 95.9721 198.827C96.1041 198.959 96.1701 199.12 96.1701 199.311C96.1701 199.502 96.1041 199.663 95.9721 199.795C95.8474 199.927 95.6934 199.993 95.5101 199.993ZM95.9941 200.972V207H94.9931V200.972H95.9941ZM99.0311 201.797V205.35C99.0311 205.643 99.0935 205.852 99.2181 205.977C99.3428 206.094 99.5591 206.153 99.8671 206.153H100.604V207H99.7021C99.1448 207 98.7268 206.872 98.4481 206.615C98.1695 206.358 98.0301 205.937 98.0301 205.35V201.797H97.2491V200.972H98.0301V199.454H99.0311V200.972H100.604V201.797H99.0311ZM107.427 203.755C107.427 203.946 107.416 204.147 107.394 204.36H102.576C102.613 204.954 102.814 205.42 103.181 205.757C103.555 206.087 104.006 206.252 104.534 206.252C104.967 206.252 105.326 206.153 105.612 205.955C105.905 205.75 106.111 205.478 106.228 205.141H107.306C107.145 205.72 106.822 206.193 106.338 206.56C105.854 206.919 105.253 207.099 104.534 207.099C103.962 207.099 103.449 206.971 102.994 206.714C102.547 206.457 102.195 206.094 101.938 205.625C101.681 205.148 101.553 204.598 101.553 203.975C101.553 203.352 101.678 202.805 101.927 202.336C102.176 201.867 102.525 201.507 102.972 201.258C103.427 201.001 103.947 200.873 104.534 200.873C105.106 200.873 105.612 200.998 106.052 201.247C106.492 201.496 106.829 201.841 107.064 202.281C107.306 202.714 107.427 203.205 107.427 203.755ZM106.393 203.546C106.393 203.165 106.309 202.838 106.14 202.567C105.971 202.288 105.74 202.079 105.447 201.94C105.161 201.793 104.842 201.72 104.49 201.72C103.984 201.72 103.551 201.881 103.192 202.204C102.84 202.527 102.638 202.974 102.587 203.546H106.393ZM110.079 201.797V205.35C110.079 205.643 110.142 205.852 110.266 205.977C110.391 206.094 110.607 206.153 110.915 206.153H111.652V207H110.75C110.193 207 109.775 206.872 109.496 206.615C109.218 206.358 109.078 205.937 109.078 205.35V201.797H108.297V200.972H109.078V199.454H110.079V200.972H111.652V201.797H110.079ZM6.473 220.161C6.473 219.413 6.64167 218.742 6.979 218.148C7.31633 217.547 7.77467 217.077 8.354 216.74C8.94067 216.403 9.58967 216.234 10.301 216.234C11.137 216.234 11.8667 216.436 12.49 216.839C13.1133 217.242 13.568 217.814 13.854 218.555H12.655C12.4423 218.093 12.1343 217.737 11.731 217.488C11.335 217.239 10.8583 217.114 10.301 217.114C9.76567 217.114 9.28533 217.239 8.86 217.488C8.43467 217.737 8.101 218.093 7.859 218.555C7.617 219.01 7.496 219.545 7.496 220.161C7.496 220.77 7.617 221.305 7.859 221.767C8.101 222.222 8.43467 222.574 8.86 222.823C9.28533 223.072 9.76567 223.197 10.301 223.197C10.8583 223.197 11.335 223.076 11.731 222.834C12.1343 222.585 12.4423 222.229 12.655 221.767H13.854C13.568 222.5 13.1133 223.069 12.49 223.472C11.8667 223.868 11.137 224.066 10.301 224.066C9.58967 224.066 8.94067 223.901 8.354 223.571C7.77467 223.234 7.31633 222.768 6.979 222.174C6.64167 221.58 6.473 220.909 6.473 220.161ZM15.0801 220.964C15.0801 220.348 15.2047 219.809 15.4541 219.347C15.7034 218.878 16.0444 218.515 16.4771 218.258C16.9171 218.001 17.4047 217.873 17.9401 217.873C18.4681 217.873 18.9264 217.987 19.3151 218.214C19.7037 218.441 19.9934 218.727 20.1841 219.072V217.972H21.1961V224H20.1841V222.878C19.9861 223.23 19.6891 223.523 19.2931 223.758C18.9044 223.985 18.4497 224.099 17.9291 224.099C17.3937 224.099 16.9097 223.967 16.4771 223.703C16.0444 223.439 15.7034 223.069 15.4541 222.592C15.2047 222.115 15.0801 221.573 15.0801 220.964ZM20.1841 220.975C20.1841 220.52 20.0924 220.124 19.9091 219.787C19.7257 219.45 19.4764 219.193 19.1611 219.017C18.8531 218.834 18.5121 218.742 18.1381 218.742C17.7641 218.742 17.4231 218.83 17.1151 219.006C16.8071 219.182 16.5614 219.439 16.3781 219.776C16.1947 220.113 16.1031 220.509 16.1031 220.964C16.1031 221.426 16.1947 221.829 16.3781 222.174C16.5614 222.511 16.8071 222.772 17.1151 222.955C17.4231 223.131 17.7641 223.219 18.1381 223.219C18.5121 223.219 18.8531 223.131 19.1611 222.955C19.4764 222.772 19.7257 222.511 19.9091 222.174C20.0924 221.829 20.1841 221.43 20.1841 220.975ZM30.2467 217.862C30.716 217.862 31.134 217.961 31.5007 218.159C31.8673 218.35 32.157 218.639 32.3697 219.028C32.5823 219.417 32.6887 219.89 32.6887 220.447V224H31.6987V220.59C31.6987 219.989 31.5483 219.53 31.2477 219.215C30.9543 218.892 30.5547 218.731 30.0487 218.731C29.528 218.731 29.1137 218.9 28.8057 219.237C28.4977 219.567 28.3437 220.047 28.3437 220.678V224H27.3537V220.59C27.3537 219.989 27.2033 219.53 26.9027 219.215C26.6093 218.892 26.2097 218.731 25.7037 218.731C25.183 218.731 24.7687 218.9 24.4607 219.237C24.1527 219.567 23.9987 220.047 23.9987 220.678V224H22.9977V217.972H23.9987V218.841C24.1967 218.526 24.4607 218.284 24.7907 218.115C25.128 217.946 25.4983 217.862 25.9017 217.862C26.4077 217.862 26.855 217.976 27.2437 218.203C27.6323 218.43 27.922 218.764 28.1127 219.204C28.2813 218.779 28.56 218.449 28.9487 218.214C29.3373 217.979 29.77 217.862 30.2467 217.862ZM35.4417 219.083C35.6397 218.738 35.933 218.452 36.3217 218.225C36.7177 217.99 37.176 217.873 37.6967 217.873C38.232 217.873 38.716 218.001 39.1487 218.258C39.5887 218.515 39.9333 218.878 40.1827 219.347C40.432 219.809 40.5567 220.348 40.5567 220.964C40.5567 221.573 40.432 222.115 40.1827 222.592C39.9333 223.069 39.5887 223.439 39.1487 223.703C38.716 223.967 38.232 224.099 37.6967 224.099C37.1833 224.099 36.7287 223.985 36.3327 223.758C35.944 223.523 35.647 223.234 35.4417 222.889V226.86H34.4407V217.972H35.4417V219.083ZM39.5337 220.964C39.5337 220.509 39.442 220.113 39.2587 219.776C39.0753 219.439 38.826 219.182 38.5107 219.006C38.2027 218.83 37.8617 218.742 37.4877 218.742C37.121 218.742 36.78 218.834 36.4647 219.017C36.1567 219.193 35.9073 219.453 35.7167 219.798C35.5333 220.135 35.4417 220.528 35.4417 220.975C35.4417 221.43 35.5333 221.829 35.7167 222.174C35.9073 222.511 36.1567 222.772 36.4647 222.955C36.78 223.131 37.121 223.219 37.4877 223.219C37.8617 223.219 38.2027 223.131 38.5107 222.955C38.826 222.772 39.0753 222.511 39.2587 222.174C39.442 221.829 39.5337 221.426 39.5337 220.964ZM47.3303 217.972V224H46.3293V223.109C46.1386 223.417 45.8709 223.659 45.5263 223.835C45.1889 224.004 44.8149 224.088 44.4043 224.088C43.9349 224.088 43.5133 223.993 43.1393 223.802C42.7653 223.604 42.4683 223.311 42.2483 222.922C42.0356 222.533 41.9293 222.06 41.9293 221.503V217.972H42.9193V221.371C42.9193 221.965 43.0696 222.423 43.3703 222.746C43.6709 223.061 44.0816 223.219 44.6023 223.219C45.1376 223.219 45.5593 223.054 45.8673 222.724C46.1753 222.394 46.3293 221.914 46.3293 221.283V217.972H47.3303ZM51.2644 224.099C50.8024 224.099 50.3881 224.022 50.0214 223.868C49.6547 223.707 49.3651 223.487 49.1524 223.208C48.9397 222.922 48.8224 222.596 48.8004 222.229H49.8344C49.8637 222.53 50.0031 222.775 50.2524 222.966C50.5091 223.157 50.8427 223.252 51.2534 223.252C51.6347 223.252 51.9354 223.168 52.1554 222.999C52.3754 222.83 52.4854 222.618 52.4854 222.361C52.4854 222.097 52.3681 221.903 52.1334 221.778C51.8987 221.646 51.5357 221.518 51.0444 221.393C50.5971 221.276 50.2304 221.158 49.9444 221.041C49.6657 220.916 49.4237 220.737 49.2184 220.502C49.0204 220.26 48.9214 219.945 48.9214 219.556C48.9214 219.248 49.0131 218.966 49.1964 218.709C49.3797 218.452 49.6401 218.251 49.9774 218.104C50.3147 217.95 50.6997 217.873 51.1324 217.873C51.7997 217.873 52.3387 218.042 52.7494 218.379C53.1601 218.716 53.3801 219.178 53.4094 219.765H52.4084C52.3864 219.45 52.2581 219.197 52.0234 219.006C51.7961 218.815 51.4881 218.72 51.0994 218.72C50.7401 218.72 50.4541 218.797 50.2414 218.951C50.0287 219.105 49.9224 219.307 49.9224 219.556C49.9224 219.754 49.9847 219.919 50.1094 220.051C50.2414 220.176 50.4027 220.278 50.5934 220.359C50.7914 220.432 51.0627 220.517 51.4074 220.612C51.8401 220.729 52.1921 220.847 52.4634 220.964C52.7347 221.074 52.9657 221.243 53.1564 221.47C53.3544 221.697 53.4571 221.994 53.4644 222.361C53.4644 222.691 53.3727 222.988 53.1894 223.252C53.0061 223.516 52.7457 223.725 52.4084 223.879C52.0784 224.026 51.6971 224.099 51.2644 224.099ZM62.1881 224L59.0311 220.502V224H58.0301V216.333H59.0311V219.886L62.1991 216.333H63.4641L59.9881 220.172L63.4971 224H62.1881ZM69.708 218.852C69.9427 219.123 70.1224 219.439 70.247 219.798C70.379 220.157 70.445 220.55 70.445 220.975C70.445 221.598 70.3057 222.148 70.027 222.625C69.7557 223.094 69.3854 223.457 68.916 223.714C68.4467 223.971 67.926 224.099 67.354 224.099C66.6427 224.099 66.0157 223.897 65.473 223.494L65.011 224H64.296L65.088 223.131C64.8534 222.852 64.67 222.533 64.538 222.174C64.4134 221.807 64.351 221.408 64.351 220.975C64.351 220.359 64.483 219.816 64.747 219.347C65.0184 218.87 65.385 218.507 65.847 218.258C66.309 218.001 66.826 217.873 67.398 217.873C68.1387 217.873 68.7804 218.082 69.323 218.5L69.796 217.972H70.511L69.708 218.852ZM65.374 220.975C65.374 221.54 65.5024 222.016 65.759 222.405L68.685 219.193C68.333 218.892 67.9004 218.742 67.387 218.742C67.0204 218.742 66.683 218.826 66.375 218.995C66.0744 219.156 65.8324 219.406 65.649 219.743C65.4657 220.08 65.374 220.491 65.374 220.975ZM69.422 220.975C69.422 220.41 69.2937 219.948 69.037 219.589L66.111 222.801C66.4557 223.08 66.87 223.219 67.354 223.219C67.7134 223.219 68.0507 223.135 68.366 222.966C68.6814 222.797 68.9344 222.544 69.125 222.207C69.323 221.87 69.422 221.459 69.422 220.975ZM72.8722 219.094C73.0775 218.735 73.3782 218.441 73.7742 218.214C74.1702 217.987 74.6212 217.873 75.1272 217.873C75.6698 217.873 76.1575 218.001 76.5902 218.258C77.0228 218.515 77.3638 218.878 77.6132 219.347C77.8625 219.809 77.9872 220.348 77.9872 220.964C77.9872 221.573 77.8625 222.115 77.6132 222.592C77.3638 223.069 77.0192 223.439 76.5792 223.703C76.1465 223.967 75.6625 224.099 75.1272 224.099C74.6065 224.099 74.1482 223.985 73.7522 223.758C73.3635 223.531 73.0702 223.241 72.8722 222.889V224H71.8712V215.86H72.8722V219.094ZM76.9642 220.964C76.9642 220.509 76.8725 220.113 76.6892 219.776C76.5058 219.439 76.2565 219.182 75.9412 219.006C75.6332 218.83 75.2922 218.742 74.9182 218.742C74.5515 218.742 74.2105 218.834 73.8952 219.017C73.5872 219.193 73.3378 219.453 73.1472 219.798C72.9638 220.135 72.8722 220.528 72.8722 220.975C72.8722 221.43 72.9638 221.829 73.1472 222.174C73.3378 222.511 73.5872 222.772 73.8952 222.955C74.2105 223.131 74.5515 223.219 74.9182 223.219C75.2922 223.219 75.6332 223.131 75.9412 222.955C76.2565 222.772 76.5058 222.511 76.6892 222.174C76.8725 221.829 76.9642 221.426 76.9642 220.964ZM84.9148 220.755C84.9148 220.946 84.9038 221.147 84.8818 221.36H80.0638C80.1004 221.954 80.3021 222.42 80.6688 222.757C81.0428 223.087 81.4938 223.252 82.0218 223.252C82.4544 223.252 82.8138 223.153 83.0998 222.955C83.3931 222.75 83.5984 222.478 83.7158 222.141H84.7938C84.6324 222.72 84.3098 223.193 83.8258 223.56C83.3418 223.919 82.7404 224.099 82.0218 224.099C81.4498 224.099 80.9364 223.971 80.4818 223.714C80.0344 223.457 79.6824 223.094 79.4258 222.625C79.1691 222.148 79.0408 221.598 79.0408 220.975C79.0408 220.352 79.1654 219.805 79.4148 219.336C79.6641 218.867 80.0124 218.507 80.4598 218.258C80.9144 218.001 81.4351 217.873 82.0218 217.873C82.5938 217.873 83.0998 217.998 83.5398 218.247C83.9798 218.496 84.3171 218.841 84.5518 219.281C84.7938 219.714 84.9148 220.205 84.9148 220.755ZM83.8808 220.546C83.8808 220.165 83.7964 219.838 83.6278 219.567C83.4591 219.288 83.2281 219.079 82.9348 218.94C82.6488 218.793 82.3298 218.72 81.9778 218.72C81.4718 218.72 81.0391 218.881 80.6798 219.204C80.3278 219.527 80.1261 219.974 80.0748 220.546H83.8808ZM89.2831 217.862C90.0164 217.862 90.6104 218.086 91.0651 218.533C91.5197 218.973 91.7471 219.611 91.7471 220.447V224H90.7571V220.59C90.7571 219.989 90.6067 219.53 90.3061 219.215C90.0054 218.892 89.5947 218.731 89.0741 218.731C88.5461 218.731 88.1244 218.896 87.8091 219.226C87.5011 219.556 87.3471 220.036 87.3471 220.667V224H86.3461V217.972H87.3471V218.83C87.5451 218.522 87.8127 218.284 88.1501 218.115C88.4947 217.946 88.8724 217.862 89.2831 217.862ZM96.4842 217.862C96.9389 217.862 97.3495 217.961 97.7162 218.159C98.0829 218.35 98.3689 218.639 98.5742 219.028C98.7869 219.417 98.8932 219.89 98.8932 220.447V224H97.9032V220.59C97.9032 219.989 97.7529 219.53 97.4522 219.215C97.1515 218.892 96.7409 218.731 96.2202 218.731C95.6922 218.731 95.2705 218.896 94.9552 219.226C94.6472 219.556 94.4932 220.036 94.4932 220.667V224H93.4922V215.86H94.4932V218.83C94.6912 218.522 94.9625 218.284 95.3072 218.115C95.6592 217.946 96.0515 217.862 96.4842 217.862ZM100.264 220.964C100.264 220.348 100.389 219.809 100.638 219.347C100.888 218.878 101.229 218.515 101.661 218.258C102.101 218.001 102.589 217.873 103.124 217.873C103.652 217.873 104.111 217.987 104.499 218.214C104.888 218.441 105.178 218.727 105.368 219.072V217.972H106.38V224H105.368V222.878C105.17 223.23 104.873 223.523 104.477 223.758C104.089 223.985 103.634 224.099 103.113 224.099C102.578 224.099 102.094 223.967 101.661 223.703C101.229 223.439 100.888 223.069 100.638 222.592C100.389 222.115 100.264 221.573 100.264 220.964ZM105.368 220.975C105.368 220.52 105.277 220.124 105.093 219.787C104.91 219.45 104.661 219.193 104.345 219.017C104.037 218.834 103.696 218.742 103.322 218.742C102.948 218.742 102.607 218.83 102.299 219.006C101.991 219.182 101.746 219.439 101.562 219.776C101.379 220.113 101.287 220.509 101.287 220.964C101.287 221.426 101.379 221.829 101.562 222.174C101.746 222.511 101.991 222.772 102.299 222.955C102.607 223.131 102.948 223.219 103.322 223.219C103.696 223.219 104.037 223.131 104.345 222.955C104.661 222.772 104.91 222.511 105.093 222.174C105.277 221.829 105.368 221.43 105.368 220.975ZM110.426 223.076L112.296 217.972H113.363L110.998 224H109.832L107.467 217.972H108.545L110.426 223.076ZM117.395 217.862C118.128 217.862 118.722 218.086 119.177 218.533C119.632 218.973 119.859 219.611 119.859 220.447V224H118.869V220.59C118.869 219.989 118.719 219.53 118.418 219.215C118.117 218.892 117.707 218.731 117.186 218.731C116.658 218.731 116.236 218.896 115.921 219.226C115.613 219.556 115.459 220.036 115.459 220.667V224H114.458V217.972H115.459V218.83C115.657 218.522 115.925 218.284 116.262 218.115C116.607 217.946 116.984 217.862 117.395 217.862ZM9.278 241.077C8.772 241.077 8.31733 240.989 7.914 240.813C7.518 240.63 7.20633 240.38 6.979 240.065C6.75167 239.742 6.63433 239.372 6.627 238.954H7.694C7.73067 239.313 7.87733 239.618 8.134 239.867C8.398 240.109 8.77933 240.23 9.278 240.23C9.75467 240.23 10.1287 240.113 10.4 239.878C10.6787 239.636 10.818 239.328 10.818 238.954C10.818 238.661 10.7373 238.422 10.576 238.239C10.4147 238.056 10.213 237.916 9.971 237.821C9.729 237.726 9.40267 237.623 8.992 237.513C8.486 237.381 8.079 237.249 7.771 237.117C7.47033 236.985 7.21 236.78 6.99 236.501C6.77733 236.215 6.671 235.834 6.671 235.357C6.671 234.939 6.77733 234.569 6.99 234.246C7.20267 233.923 7.49967 233.674 7.881 233.498C8.26967 233.322 8.71333 233.234 9.212 233.234C9.93067 233.234 10.5173 233.414 10.972 233.773C11.434 234.132 11.6943 234.609 11.753 235.203H10.653C10.6163 234.91 10.4623 234.653 10.191 234.433C9.91967 234.206 9.56033 234.092 9.113 234.092C8.695 234.092 8.354 234.202 8.09 234.422C7.826 234.635 7.694 234.935 7.694 235.324C7.694 235.603 7.771 235.83 7.925 236.006C8.08633 236.182 8.28067 236.318 8.508 236.413C8.74267 236.501 9.069 236.604 9.487 236.721C9.993 236.86 10.4 237 10.708 237.139C11.016 237.271 11.28 237.48 11.5 237.766C11.72 238.045 11.83 238.426 11.83 238.91C11.83 239.284 11.731 239.636 11.533 239.966C11.335 240.296 11.0417 240.564 10.653 240.769C10.2643 240.974 9.806 241.077 9.278 241.077ZM23.0491 233.333L20.8271 241H19.7051L17.9231 234.829L16.0751 241L14.9641 241.011L12.8191 233.333H13.8861L15.5581 239.834L17.4061 233.333H18.5281L20.2881 239.812L21.9711 233.333H23.0491ZM23.9685 240.197C24.8998 239.449 25.6295 238.837 26.1575 238.36C26.6855 237.876 27.1292 237.374 27.4885 236.853C27.8552 236.325 28.0385 235.808 28.0385 235.302C28.0385 234.825 27.9212 234.451 27.6865 234.18C27.4592 233.901 27.0888 233.762 26.5755 233.762C26.0768 233.762 25.6882 233.92 25.4095 234.235C25.1382 234.543 24.9915 234.957 24.9695 235.478H24.0015C24.0308 234.657 24.2802 234.022 24.7495 233.575C25.2188 233.128 25.8238 232.904 26.5645 232.904C27.3198 232.904 27.9175 233.113 28.3575 233.531C28.8048 233.949 29.0285 234.525 29.0285 235.258C29.0285 235.867 28.8452 236.461 28.4785 237.04C28.1192 237.612 27.7085 238.118 27.2465 238.558C26.7845 238.991 26.1942 239.497 25.4755 240.076H29.2595V240.912H23.9685V240.197ZM31.7256 239.614L30.4936 242.573H29.8226L30.6256 239.614H31.7256ZM41.8329 235.555C41.6203 235.108 41.3123 234.763 40.9089 234.521C40.5056 234.272 40.0363 234.147 39.5009 234.147C38.9656 234.147 38.4816 234.272 38.0489 234.521C37.6236 234.763 37.2863 235.115 37.0369 235.577C36.7949 236.032 36.6739 236.56 36.6739 237.161C36.6739 237.762 36.7949 238.29 37.0369 238.745C37.2863 239.2 37.6236 239.552 38.0489 239.801C38.4816 240.043 38.9656 240.164 39.5009 240.164C40.2489 240.164 40.8649 239.94 41.3489 239.493C41.8329 239.046 42.1153 238.441 42.1959 237.678H39.1379V236.864H43.2629V237.634C43.2043 238.265 43.0063 238.844 42.6689 239.372C42.3316 239.893 41.8879 240.307 41.3379 240.615C40.7879 240.916 40.1756 241.066 39.5009 241.066C38.7896 241.066 38.1406 240.901 37.5539 240.571C36.9673 240.234 36.5016 239.768 36.1569 239.174C35.8196 238.58 35.6509 237.909 35.6509 237.161C35.6509 236.413 35.8196 235.742 36.1569 235.148C36.5016 234.547 36.9673 234.081 37.5539 233.751C38.1406 233.414 38.7896 233.245 39.5009 233.245C40.3149 233.245 41.0336 233.447 41.6569 233.85C42.2876 234.253 42.7459 234.822 43.0319 235.555H41.8329ZM45.6975 235.951C45.8735 235.606 46.1228 235.339 46.4455 235.148C46.7755 234.957 47.1751 234.862 47.6445 234.862V235.896H47.3805C46.2585 235.896 45.6975 236.505 45.6975 237.722V241H44.6965V234.972H45.6975V235.951ZM54.256 234.972V241H53.255V240.109C53.0643 240.417 52.7966 240.659 52.452 240.835C52.1146 241.004 51.7406 241.088 51.33 241.088C50.8606 241.088 50.439 240.993 50.065 240.802C49.691 240.604 49.394 240.311 49.174 239.922C48.9613 239.533 48.855 239.06 48.855 238.503V234.972H49.845V238.371C49.845 238.965 49.9953 239.423 50.296 239.746C50.5966 240.061 51.0073 240.219 51.528 240.219C52.0633 240.219 52.485 240.054 52.793 239.724C53.101 239.394 53.255 238.914 53.255 238.283V234.972H54.256ZM57.0571 236.083C57.2551 235.738 57.5484 235.452 57.9371 235.225C58.3331 234.99 58.7914 234.873 59.3121 234.873C59.8474 234.873 60.3314 235.001 60.7641 235.258C61.2041 235.515 61.5488 235.878 61.7981 236.347C62.0474 236.809 62.1721 237.348 62.1721 237.964C62.1721 238.573 62.0474 239.115 61.7981 239.592C61.5488 240.069 61.2041 240.439 60.7641 240.703C60.3314 240.967 59.8474 241.099 59.3121 241.099C58.7988 241.099 58.3441 240.985 57.9481 240.758C57.5594 240.523 57.2624 240.234 57.0571 239.889V243.86H56.0561V234.972H57.0571V236.083ZM61.1491 237.964C61.1491 237.509 61.0574 237.113 60.8741 236.776C60.6908 236.439 60.4414 236.182 60.1261 236.006C59.8181 235.83 59.4771 235.742 59.1031 235.742C58.7364 235.742 58.3954 235.834 58.0801 236.017C57.7721 236.193 57.5228 236.453 57.3321 236.798C57.1488 237.135 57.0571 237.528 57.0571 237.975C57.0571 238.43 57.1488 238.829 57.3321 239.174C57.5228 239.511 57.7721 239.772 58.0801 239.955C58.3954 240.131 58.7364 240.219 59.1031 240.219C59.4771 240.219 59.8181 240.131 60.1261 239.955C60.4414 239.772 60.6908 239.511 60.8741 239.174C61.0574 238.829 61.1491 238.426 61.1491 237.964ZM64.6007 236.083C64.7987 235.738 65.092 235.452 65.4807 235.225C65.8767 234.99 66.335 234.873 66.8557 234.873C67.391 234.873 67.875 235.001 68.3077 235.258C68.7477 235.515 69.0924 235.878 69.3417 236.347C69.591 236.809 69.7157 237.348 69.7157 237.964C69.7157 238.573 69.591 239.115 69.3417 239.592C69.0924 240.069 68.7477 240.439 68.3077 240.703C67.875 240.967 67.391 241.099 66.8557 241.099C66.3424 241.099 65.8877 240.985 65.4917 240.758C65.103 240.523 64.806 240.234 64.6007 239.889V243.86H63.5997V234.972H64.6007V236.083ZM68.6927 237.964C68.6927 237.509 68.601 237.113 68.4177 236.776C68.2344 236.439 67.985 236.182 67.6697 236.006C67.3617 235.83 67.0207 235.742 66.6467 235.742C66.28 235.742 65.939 235.834 65.6237 236.017C65.3157 236.193 65.0664 236.453 64.8757 236.798C64.6924 237.135 64.6007 237.528 64.6007 237.975C64.6007 238.43 64.6924 238.829 64.8757 239.174C65.0664 239.511 65.3157 239.772 65.6237 239.955C65.939 240.131 66.28 240.219 66.6467 240.219C67.0207 240.219 67.3617 240.131 67.6697 239.955C67.985 239.772 68.2344 239.511 68.4177 239.174C68.601 238.829 68.6927 238.426 68.6927 237.964ZM76.6433 237.755C76.6433 237.946 76.6323 238.147 76.6103 238.36H71.7923C71.829 238.954 72.0306 239.42 72.3973 239.757C72.7713 240.087 73.2223 240.252 73.7503 240.252C74.183 240.252 74.5423 240.153 74.8283 239.955C75.1216 239.75 75.327 239.478 75.4443 239.141H76.5223C76.361 239.72 76.0383 240.193 75.5543 240.56C75.0703 240.919 74.469 241.099 73.7503 241.099C73.1783 241.099 72.665 240.971 72.2103 240.714C71.763 240.457 71.411 240.094 71.1543 239.625C70.8976 239.148 70.7693 238.598 70.7693 237.975C70.7693 237.352 70.894 236.805 71.1433 236.336C71.3926 235.867 71.741 235.507 72.1883 235.258C72.643 235.001 73.1636 234.873 73.7503 234.873C74.3223 234.873 74.8283 234.998 75.2683 235.247C75.7083 235.496 76.0456 235.841 76.2803 236.281C76.5223 236.714 76.6433 237.205 76.6433 237.755ZM75.6093 237.546C75.6093 237.165 75.525 236.838 75.3563 236.567C75.1876 236.288 74.9566 236.079 74.6633 235.94C74.3773 235.793 74.0583 235.72 73.7063 235.72C73.2003 235.72 72.7676 235.881 72.4083 236.204C72.0563 236.527 71.8546 236.974 71.8033 237.546H75.6093ZM80.6882 233.96V233.047H82.7562V241H81.7442V233.96H80.6882ZM84.5636 235.049C84.615 234.374 84.8753 233.846 85.3446 233.465C85.814 233.084 86.4226 232.893 87.1706 232.893C87.6693 232.893 88.0983 232.985 88.4576 233.168C88.8243 233.344 89.0993 233.586 89.2826 233.894C89.4733 234.202 89.5686 234.55 89.5686 234.939C89.5686 235.394 89.4366 235.786 89.1726 236.116C88.916 236.446 88.5786 236.659 88.1606 236.754V236.809C88.6373 236.926 89.015 237.157 89.2936 237.502C89.5723 237.847 89.7116 238.298 89.7116 238.855C89.7116 239.273 89.6163 239.651 89.4256 239.988C89.235 240.318 88.949 240.578 88.5676 240.769C88.1863 240.96 87.728 241.055 87.1926 241.055C86.4153 241.055 85.7773 240.853 85.2786 240.45C84.78 240.039 84.5013 239.46 84.4426 238.712H85.4106C85.462 239.152 85.6416 239.511 85.9496 239.79C86.2576 240.069 86.6683 240.208 87.1816 240.208C87.695 240.208 88.0836 240.076 88.3476 239.812C88.619 239.541 88.7546 239.192 88.7546 238.767C88.7546 238.217 88.5713 237.821 88.2046 237.579C87.838 237.337 87.2843 237.216 86.5436 237.216H86.2906V236.38H86.5546C87.2293 236.373 87.739 236.263 88.0836 236.05C88.4283 235.83 88.6006 235.493 88.6006 235.038C88.6006 234.649 88.4723 234.338 88.2156 234.103C87.9663 233.868 87.607 233.751 87.1376 233.751C86.683 233.751 86.3163 233.868 86.0376 234.103C85.759 234.338 85.594 234.653 85.5426 235.049H84.5636ZM97.9008 233.256C98.6415 233.256 99.3015 233.425 99.8808 233.762C100.46 234.092 100.907 234.554 101.223 235.148C101.545 235.735 101.707 236.406 101.707 237.161C101.707 237.916 101.545 238.591 101.223 239.185C100.907 239.772 100.46 240.234 99.8808 240.571C99.3015 240.901 98.6415 241.066 97.9008 241.066C97.1528 241.066 96.4891 240.901 95.9098 240.571C95.3305 240.234 94.8795 239.772 94.5568 239.185C94.2341 238.591 94.0728 237.916 94.0728 237.161C94.0728 236.406 94.2341 235.735 94.5568 235.148C94.8795 234.554 95.3305 234.092 95.9098 233.762C96.4891 233.425 97.1528 233.256 97.9008 233.256ZM97.9008 233.696C97.2188 233.696 96.6248 233.843 96.1188 234.136C95.6128 234.422 95.2241 234.825 94.9528 235.346C94.6815 235.867 94.5458 236.472 94.5458 237.161C94.5458 237.843 94.6815 238.448 94.9528 238.976C95.2241 239.497 95.6128 239.904 96.1188 240.197C96.6248 240.49 97.2188 240.637 97.9008 240.637C98.5755 240.637 99.1621 240.49 99.6608 240.197C100.167 239.904 100.555 239.497 100.827 238.976C101.098 238.448 101.234 237.843 101.234 237.161C101.234 236.472 101.098 235.867 100.827 235.346C100.555 234.825 100.167 234.422 99.6608 234.136C99.1621 233.843 98.5755 233.696 97.9008 233.696ZM97.8788 234.609C97.4388 234.609 97.0355 234.712 96.6688 234.917C96.3095 235.122 96.0235 235.419 95.8108 235.808C95.5981 236.189 95.4918 236.637 95.4918 237.15C95.4918 237.663 95.5981 238.114 95.8108 238.503C96.0235 238.884 96.3095 239.181 96.6688 239.394C97.0355 239.599 97.4388 239.702 97.8788 239.702C98.4288 239.702 98.9055 239.555 99.3088 239.262C99.7121 238.961 99.9871 238.562 100.134 238.063H99.2098C98.9898 238.672 98.5461 238.976 97.8788 238.976C97.4388 238.976 97.0795 238.818 96.8008 238.503C96.5221 238.188 96.3828 237.74 96.3828 237.161C96.3828 236.574 96.5221 236.123 96.8008 235.808C97.0795 235.493 97.4388 235.335 97.8788 235.335C98.2015 235.335 98.4801 235.416 98.7148 235.577C98.9495 235.731 99.1145 235.955 99.2098 236.248H100.134C99.9945 235.727 99.7231 235.324 99.3198 235.038C98.9165 234.752 98.4361 234.609 97.8788 234.609Z" fill="#555555"/>
</g>
<defs>
<filter id="filter0_d_134_92" x="2.36304" y="198.629" width="121.496" height="53.231" filterUnits="userSpaceOnUse" color-interpolation-filters="sRGB">
<feFlood flood-opacity="0" result="BackgroundImageFix"/>
<feColorMatrix in="SourceAlpha" type="matrix" values="0 0 0 0 0 0 0 0 0 0 0 0 0 0 0 0 0 0 127 0" result="hardAlpha"/>
<feOffset dy="4"/>
<feGaussianBlur stdDeviation="2"/>
<feComposite in2="hardAlpha" operator="out"/>
<feColorMatrix type="matrix" values="0 0 0 0 0 0 0 0 0 0 0 0 0 0 0 0 0 0 0.25 0"/>
<feBlend mode="normal" in2="BackgroundImageFix" result="effect1_dropShadow_134_92"/>
<feBlend mode="normal" in="SourceGraphic" in2="effect1_dropShadow_134_92" result="shape"/>
</filter>
</defs>
</svg>
